<svg xmlns="http://www.w3.org/2000/svg" xmlns:xlink="http://www.w3.org/1999/xlink" viewBox="0 0 16 17" version="1.1" x="0px" y="0px"><title>042-previous task</title><desc>Created with Sketch.</desc><g stroke="none" stroke-width="1" fill="none" fill-rule="evenodd"><g fill="#000000"><polygon points="13 7.3989 10 7.3989 10 5.3989 8 5.3989 8 7.3989 5 7.3989 9 11.3989"></polygon><polygon points="0 14.399 2 14.399 2 12.399 0 12.399"></polygon><polygon points="0 9.399 2 9.399 2 7.399 0 7.399"></polygon><polygon points="0 4.399 2 4.399 2 2.399 0 2.399"></polygon><path d="M4,14.399 L14,14.399 L14,2.399 L4,2.399 L4,14.399 Z M2,0.399 L2,2.399 L3,2.399 L3,4.399 L2,4.399 L2,7.399 L3,7.399 L3,9.399 L2,9.399 L2,12.399 L3,12.399 L3,14.399 L2,14.399 L2,16.399 L16,16.399 L16,0.399 L2,0.399 Z"></path></g></g></svg>